<?xml version="1.0" encoding="UTF-8"?>
<svg xmlns="http://www.w3.org/2000/svg" width="256" height="256" viewBox="0 0 256 256">
  <defs>
    <linearGradient id="g1" x1="0%" y1="0%" x2="100%" y2="100%">
      <stop offset="0%" stop-color="#79f2e2"/>
      <stop offset="100%" stop-color="#1a6cff"/>
    </linearGradient>
    <linearGradient id="g2" x1="100%" y1="0%" x2="0%" y2="100%">
      <stop offset="0%" stop-color="#2fb9ff"/>
      <stop offset="100%" stop-color="#37e5d8"/>
    </linearGradient>
  </defs>
  <rect width="256" height="256" rx="56" fill="#1f2430"/>
  <path d="M44 128c0-34 28-62 62-62 30 0 56 21 61 50h-35c-4-10-14-17-26-17-16 0-29 13-29 29s13 29 29 29c12 0 22-7 26-17h35c-5 29-31 50-61 50-34 0-62-28-62-62z" fill="url(#g1)"/>
  <path d="M212 128c0 34-28 62-62 62-30 0-56-21-61-50h35c4 10 14 17 26 17 16 0 29-13 29-29s-13-29-29-29c-12 0-22 7-26 17H89c5-29 31-50 61-50 34 0 62 28 62 62z" fill="url(#g2)"/>
</svg>
